<?xml version="1.0" standalone="no"?>
<!DOCTYPE svg PUBLIC "-//W3C//DTD SVG 20010904//EN"
 "http://www.w3.org/TR/2001/REC-SVG-20010904/DTD/svg10.dtd">
<svg version="1.0" xmlns="http://www.w3.org/2000/svg"
 width="300.000000pt" height="90.000000pt" viewBox="0 0 300.000000 90.000000"
 preserveAspectRatio="xMidYMid meet">
<metadata>
Created by potrace 1.10, written by Peter Selinger 2001-2011
</metadata>
<g transform="translate(0.000000,90.000000) scale(0.100000,-0.100000)"
fill="#000000" stroke="none">
<path d="M613 748 c-4 -7 -6 -100 -5 -207 4 -185 3 -193 -15 -186 -10 5 -43 9
-73 10 -93 3 -123 24 -86 61 19 18 28 18 65 -3 30 -18 31 -17 52 4 60 59 -46
147 -133 110 -69 -30 -108 -85 -108 -155 0 -56 12 -71 78 -97 54 -22 174 -18
198 7 15 15 18 14 35 -3 28 -28 55 -23 86 17 65 85 82 89 102 24 18 -62 84
-85 97 -34 l7 26 26 -29 c32 -36 88 -63 131 -63 50 0 116 20 140 43 18 16 26
18 39 8 41 -30 100 -51 144 -51 52 0 115 22 134 46 10 14 17 13 59 -12 37 -22
62 -29 113 -30 35 -2 74 2 85 8 36 18 66 51 66 72 1 19 2 18 15 -6 19 -34 52
-45 72 -25 33 33 10 190 -29 203 -35 11 -62 -30 -54 -83 7 -50 -2 -53 -48 -18
-18 14 -36 25 -40 25 -11 0 -76 45 -76 53 0 4 8 7 18 7 26 0 62 28 62 49 0 10
-9 26 -20 36 -41 37 -186 -8 -210 -64 -14 -34 -4 -58 35 -89 28 -22 32 -32 11
-32 -7 0 -19 -7 -26 -15 -11 -13 -17 -11 -49 17 -21 18 -60 46 -87 62 l-49 29
28 8 c38 10 57 27 57 52 0 45 -63 59 -141 32 -92 -33 -118 -99 -59 -148 33
-28 37 -37 16 -37 -7 0 -21 -12 -31 -26 -13 -20 -19 -23 -30 -14 -10 8 -34 10
-74 5 -71 -8 -117 8 -56 19 52 10 95 55 95 99 0 75 -74 116 -150 82 -58 -26
-102 -81 -122 -154 -2 -8 -12 8 -22 35 -10 27 -25 56 -33 66 -22 25 -61 31
-95 13 -54 -26 -55 -24 -60 99 -3 85 -9 120 -21 140 -18 28 -50 34 -64 14z
m48 -14 c9 -11 14 -65 17 -177 l4 -162 49 48 c72 73 113 55 144 -66 19 -73 19
-97 0 -97 -20 0 -41 36 -56 93 -6 26 -16 50 -21 53 -13 8 -53 -30 -91 -86 -67
-98 -73 -82 -80 181 -3 120 -3 220 0 223 10 10 20 7 34 -10z m779 -199 c20
-24 -5 -45 -54 -45 -23 0 -50 -6 -60 -13 -17 -12 -10 -18 65 -57 99 -50 129
-75 129 -107 0 -31 -34 -51 -101 -59 -44 -5 -65 -2 -106 16 -53 22 -67 39 -57
65 8 20 23 19 59 -5 32 -21 145 -29 145 -10 0 5 -44 32 -98 59 -107 53 -127
70 -118 98 16 50 166 94 196 58z m305 -15 c0 -23 -5 -25 -52 -30 -89 -9 -87
-23 15 -74 124 -62 154 -113 87 -145 -74 -37 -225 -5 -233 47 -5 32 24 39 58
13 22 -16 44 -21 90 -21 36 0 60 4 60 11 0 6 -37 28 -83 49 -139 65 -165 99
-109 138 40 28 82 41 127 39 35 -2 40 -5 40 -27z m-1227 -10 c22 -14 32 -27
32 -45 0 -35 -29 -45 -48 -17 -21 32 -59 28 -93 -10 -37 -38 -34 -58 11 -81
27 -14 49 -17 91 -13 42 4 60 2 68 -8 34 -41 -107 -62 -189 -30 -47 19 -60 38
-60 88 0 39 35 87 85 117 38 24 62 24 103 -1z m616 -1 c59 -47 16 -134 -67
-133 -23 0 -52 4 -64 8 -30 11 -31 -11 -3 -47 27 -34 72 -42 140 -24 60 16 82
9 64 -21 -15 -23 -115 -46 -161 -37 -24 4 -51 21 -76 46 -35 35 -39 43 -34 76
12 74 88 153 148 153 15 0 38 -9 53 -21z m794 -106 c13 -59 6 -113 -14 -113
-21 0 -31 28 -38 106 -5 55 -4 73 6 77 20 7 34 -13 46 -70z"/>
<path d="M1032 457 c-26 -28 -20 -37 23 -37 38 0 71 30 53 48 -19 19 -53 14
-76 -11z"/>
<path d="M2451 736 c-13 -15 -17 -410 -5 -441 11 -27 45 -29 71 -2 l25 24 47
-22 c75 -37 113 -36 130 1 10 22 9 31 -4 50 -8 13 -22 24 -31 24 -8 0 -28 7
-45 15 -24 13 -28 19 -20 34 6 10 26 26 44 35 50 23 62 41 49 71 -14 30 -57
34 -105 8 -68 -37 -73 -31 -80 97 -2 41 -10 85 -18 98 -16 25 -41 29 -58 8z
m51 -51 c4 -22 7 -84 7 -137 1 -54 4 -98 7 -98 3 0 20 11 37 24 49 36 114 66
131 60 33 -13 24 -33 -27 -58 -29 -14 -63 -34 -76 -45 l-24 -19 44 -31 c29
-22 51 -30 65 -27 32 8 50 -18 36 -49 -7 -14 -20 -25 -30 -25 -22 0 -99 48
-126 78 -23 27 -36 28 -29 4 7 -29 -14 -72 -37 -72 -18 0 -26 17 -20 45 1 6 1
97 1 203 -2 180 -1 193 16 190 12 -2 20 -16 25 -43z"/>
<path d="M2180 671 c-5 -11 -10 -33 -10 -50 0 -24 -7 -34 -31 -46 -17 -9 -33
-14 -37 -11 -3 3 -2 6 1 6 4 0 -1 10 -11 22 -54 67 -69 72 -108 33 l-25 -25
-36 27 c-33 25 -37 26 -62 12 -16 -9 -27 -25 -29 -41 -6 -54 77 -90 119 -52
17 15 20 15 43 0 14 -9 40 -16 59 -16 26 0 36 -6 45 -25 7 -14 24 -30 39 -36
36 -13 43 -25 43 -74 0 -92 36 -155 88 -155 45 1 107 35 130 72 26 42 27 61 6
82 -26 26 -61 20 -79 -14 -21 -40 -42 -29 -50 25 -11 69 -6 78 55 98 62 21 80
33 80 55 0 26 -33 41 -87 42 -48 0 -53 2 -53 23 0 55 -66 91 -90 48z m60 -10
c5 -11 10 -36 10 -55 l0 -35 68 2 c61 2 67 0 67 -18 0 -17 -10 -21 -65 -30
l-65 -10 -3 -55 c-4 -84 9 -134 36 -138 30 -5 49 12 57 49 5 20 13 29 26 29
27 0 29 -46 2 -86 -15 -23 -79 -54 -113 -54 -40 0 -58 51 -59 164 l-1 68 -34
-6 c-24 -5 -37 -2 -47 10 -19 23 0 48 42 54 l33 5 -3 52 c-1 29 0 57 4 63 10
16 33 12 45 -9z m-321 -57 c29 -37 27 -54 -7 -54 -40 0 -75 35 -62 60 15 28
45 25 69 -6z m139 -4 c12 -16 22 -34 22 -40 0 -15 -53 -12 -78 6 -25 17 -28
34 -10 52 20 20 43 14 66 -18z"/>
<path d="M2006 471 c-15 -16 -17 -30 -11 -88 11 -110 55 -150 89 -79 13 28 14
43 4 92 -16 87 -46 114 -82 75z m60 -98 c7 -80 6 -83 -14 -83 -24 0 -28 12
-38 104 -5 53 -3 70 7 77 25 15 38 -14 45 -98z"/>
<path d="M191 354 c-26 -33 -27 -58 -1 -84 27 -27 56 -25 85 5 30 29 32 58 5
85 -28 28 -64 25 -89 -6z m79 -9 c17 -20 5 -62 -20 -70 -35 -11 -60 3 -60 35
0 44 53 67 80 35z"/>
</g>
</svg>
